<?xml version="1.0" encoding="UTF-8" ?>
<!DOCTYPE svg PUBLIC "-//W3C//DTD SVG 1.1//EN" "http://www.w3.org/Graphics/SVG/1.1/DTD/svg11.dtd">
<svg width="959pt" height="765pt" viewBox="0 0 959 765" version="1.1" xmlns="http://www.w3.org/2000/svg">
<g id="#bf0505ff">
<path fill="#bf0505" opacity="1.00" d=" M 0.00 0.00 L 599.89 0.00 C 606.51 3.80 594.37 10.21 601.59 12.48 C 606.11 16.12 611.16 19.40 615.50 22.79 C 616.09 15.88 624.27 11.83 626.11 20.08 C 618.35 24.12 620.29 34.13 611.03 36.03 C 607.45 42.23 603.44 49.58 602.97 57.09 C 606.29 57.47 608.09 54.92 607.32 51.26 C 614.88 44.73 621.15 34.03 628.00 27.21 C 638.34 32.22 636.14 48.08 648.48 50.65 C 660.99 59.03 638.75 85.40 657.02 87.37 C 650.38 89.54 649.00 94.12 652.12 99.73 C 640.41 96.99 646.45 105.60 651.78 108.29 C 654.36 114.48 645.85 111.05 643.00 110.89 C 611.99 98.46 580.07 88.65 552.16 68.90 C 529.89 60.83 505.69 57.87 481.74 61.22 C 483.33 63.08 488.64 63.69 487.42 66.45 C 470.79 67.09 452.42 64.96 437.55 73.79 C 447.90 74.47 458.52 70.49 468.67 73.30 C 468.85 75.15 471.23 78.76 468.58 79.50 C 443.41 88.46 411.52 79.66 391.70 100.98 C 404.79 95.23 419.24 84.96 435.25 90.17 C 432.81 95.29 425.79 93.72 421.05 93.34 C 412.44 98.72 400.83 99.06 394.24 108.21 C 390.67 112.04 380.57 114.47 385.99 106.81 C 378.02 109.89 369.51 114.83 363.67 120.96 C 369.95 122.88 373.90 117.49 379.19 115.84 C 376.97 119.09 371.75 120.58 371.90 125.00 C 390.12 122.99 406.56 113.88 422.61 105.69 C 433.89 104.95 444.57 101.38 455.39 98.41 C 456.99 99.67 464.53 96.89 463.81 100.70 C 457.73 102.56 445.82 101.46 446.94 110.98 C 458.62 111.73 470.42 107.90 482.00 110.05 C 490.50 115.28 467.87 131.62 482.05 129.22 C 489.12 128.76 486.78 137.34 485.66 141.64 C 480.08 143.82 473.94 145.53 469.64 149.99 C 487.62 151.80 497.57 133.23 515.14 134.98 C 514.73 140.32 507.14 137.22 504.05 140.20 C 504.18 147.12 515.37 138.93 518.08 143.82 C 503.68 150.07 488.85 156.44 473.64 159.92 C 478.79 155.86 486.62 154.98 489.92 148.93 C 483.58 145.24 465.25 165.95 462.68 151.13 C 449.33 154.71 435.46 157.42 421.78 159.89 C 427.12 150.38 439.05 147.75 446.29 140.15 C 436.88 135.77 426.51 144.62 418.07 139.72 C 418.62 135.05 426.65 132.54 418.06 129.86 C 422.52 124.86 430.60 123.75 436.91 121.59 C 437.33 119.14 434.26 118.76 432.53 118.42 C 409.42 117.72 388.01 128.61 365.67 132.74 C 362.11 135.77 358.56 138.81 354.03 140.25 C 353.58 143.65 358.86 142.28 360.14 144.83 C 352.14 149.04 343.25 151.23 335.16 155.25 C 332.33 160.52 346.62 157.52 340.16 161.11 C 326.99 164.70 316.57 173.73 305.30 180.32 C 307.75 187.38 287.94 196.74 301.23 197.42 C 297.96 210.77 282.56 210.00 274.13 218.11 C 268.13 223.19 264.24 230.50 256.95 234.11 C 259.95 230.02 262.07 225.47 263.86 220.76 C 270.31 214.04 279.89 210.16 285.78 203.15 C 280.47 196.31 297.61 198.92 292.88 189.99 C 289.37 179.53 306.06 180.99 304.93 169.66 C 310.66 166.44 318.50 164.96 324.72 161.73 C 328.55 158.62 317.62 160.39 319.14 156.28 C 330.36 155.33 338.42 147.04 347.71 141.66 C 351.45 132.55 340.37 141.67 336.89 143.15 C 340.98 131.40 355.36 127.10 363.21 117.92 C 345.28 123.50 329.61 137.34 315.88 149.85 C 313.37 150.93 314.30 147.34 313.63 145.95 C 304.98 148.35 305.88 163.50 294.94 162.03 C 295.09 154.42 308.74 154.99 306.56 145.45 C 317.07 137.36 325.06 126.36 336.57 119.53 C 352.53 104.52 374.03 99.57 392.66 89.66 C 405.83 87.85 418.50 83.78 431.58 81.56 C 433.43 80.83 436.85 77.30 432.96 77.17 C 419.28 77.99 406.44 83.09 392.94 85.09 C 399.86 78.08 410.82 77.43 418.86 71.86 C 432.05 74.32 441.93 62.24 454.71 65.75 C 458.77 59.47 450.04 59.95 446.33 61.66 C 440.37 58.45 428.82 72.71 429.69 61.08 C 406.53 66.27 382.79 72.15 363.22 86.20 C 347.29 92.33 333.06 102.59 316.23 106.45 C 308.85 114.47 298.05 118.44 288.16 123.17 C 282.32 129.78 301.15 120.85 295.78 130.46 C 287.24 133.21 279.75 138.44 272.82 143.99 C 276.45 143.55 279.86 142.19 283.36 141.21 C 277.43 146.75 275.34 155.01 269.06 160.08 C 265.96 163.25 262.24 166.52 263.17 171.42 C 258.67 178.88 249.17 183.90 245.90 192.22 C 249.17 190.82 251.48 187.81 254.92 186.71 C 252.89 192.88 251.19 200.88 243.20 201.30 C 240.04 208.37 233.21 214.58 230.15 220.76 C 237.33 225.48 223.57 235.33 233.94 236.37 C 233.68 242.07 223.51 249.21 229.57 253.49 C 238.03 264.03 214.91 269.58 217.94 277.01 C 228.34 271.95 218.20 284.61 220.05 289.99 C 222.08 295.29 213.22 294.57 212.04 298.02 C 212.58 301.39 216.89 299.17 219.16 299.25 C 219.61 302.13 214.79 307.22 219.76 307.30 C 227.11 308.11 220.40 316.64 222.00 321.11 C 233.91 314.54 219.99 301.34 227.97 291.94 C 223.80 286.56 226.41 277.83 233.59 276.58 C 229.58 266.55 243.60 265.10 244.04 255.80 C 240.36 257.41 238.04 260.93 234.88 263.30 C 229.76 258.80 238.39 255.48 238.96 251.04 C 238.70 246.90 230.38 253.31 233.55 248.52 C 238.38 243.90 233.77 235.98 241.62 233.63 C 245.37 231.17 245.31 235.35 245.25 238.17 C 236.33 243.19 247.41 251.31 252.75 246.61 C 248.68 258.70 245.85 271.88 237.96 282.19 C 247.02 282.44 251.59 272.05 258.05 267.02 C 256.72 254.52 265.75 243.14 276.38 237.05 C 270.30 237.21 262.99 243.25 263.88 233.45 C 266.44 225.97 284.44 222.01 278.69 234.44 C 281.28 239.66 278.98 244.28 272.14 244.08 C 271.14 248.62 269.00 253.60 266.18 257.79 C 270.94 262.89 260.47 265.50 262.62 271.16 C 263.54 276.03 248.75 278.92 255.60 281.49 C 254.31 285.67 260.40 289.58 255.64 292.68 C 250.69 298.07 242.45 301.43 248.02 292.00 C 236.25 297.74 248.28 285.44 252.16 281.84 C 246.61 282.72 244.09 289.66 237.55 288.62 C 239.95 296.22 229.89 295.26 231.09 302.99 C 241.97 297.46 232.97 309.06 230.97 313.89 C 239.03 316.95 231.82 329.22 240.90 329.46 C 234.59 339.60 250.55 348.10 244.75 356.78 C 239.96 362.00 248.19 360.69 251.11 358.88 C 249.67 362.81 247.91 376.19 243.17 368.76 C 241.30 364.59 239.41 370.77 238.12 372.38 C 230.23 369.02 239.64 365.38 237.05 359.91 C 235.59 353.35 236.77 346.67 236.04 340.05 C 229.47 339.75 232.68 351.33 225.90 349.44 C 222.13 349.43 223.25 357.11 227.12 355.44 C 231.28 360.03 222.29 375.57 233.48 375.62 C 238.98 378.30 227.85 385.51 234.53 385.42 C 242.71 381.26 243.94 391.10 238.20 394.00 C 240.22 397.65 242.26 401.29 244.20 404.99 C 249.36 397.34 248.64 411.63 252.29 412.02 C 255.98 420.98 249.08 440.15 259.79 443.98 C 263.35 436.55 265.94 423.01 276.38 421.04 C 276.44 422.03 276.50 423.03 276.55 424.03 C 254.46 438.41 266.73 470.26 266.20 492.06 C 273.39 490.82 278.74 482.14 277.82 475.08 C 276.68 462.53 276.78 449.93 277.24 437.35 C 281.64 431.88 282.34 424.60 285.49 418.49 C 290.68 416.65 294.85 413.26 297.22 408.13 C 299.54 404.68 308.74 398.04 309.14 405.82 C 300.22 407.89 290.20 418.38 294.89 427.34 C 297.35 417.80 314.27 413.79 312.71 404.51 C 316.32 398.11 325.64 398.28 329.39 392.62 C 323.21 386.38 348.92 384.57 334.07 381.54 C 329.52 371.50 353.08 377.41 343.84 371.05 C 340.46 368.03 349.22 360.60 350.89 366.07 C 353.39 371.17 357.93 374.15 363.37 375.24 C 355.29 387.26 337.34 388.28 329.91 401.17 C 334.01 399.34 343.75 394.34 344.71 401.37 C 346.19 406.72 339.23 403.55 336.31 404.13 C 337.38 407.86 334.73 410.67 331.43 411.88 C 330.25 405.09 323.89 414.80 320.08 410.05 C 319.25 413.10 316.57 419.55 321.83 415.81 C 329.95 413.11 320.88 425.85 326.93 428.05 C 334.20 433.23 327.69 441.28 324.27 446.76 C 336.14 448.31 322.80 460.27 324.21 467.05 C 325.58 493.90 333.88 519.66 334.20 546.68 C 350.40 561.02 336.11 589.25 356.95 598.71 C 361.96 593.92 369.83 588.71 369.07 581.04 C 373.37 573.83 384.07 568.46 385.10 559.25 C 376.65 563.08 377.38 551.89 383.07 548.83 C 380.59 543.15 374.78 538.76 373.03 531.94 C 368.57 524.86 373.66 515.29 368.56 508.29 C 371.35 506.29 369.83 504.09 368.24 501.86 C 371.42 485.11 383.40 468.87 375.48 451.67 C 383.34 445.72 392.22 431.91 391.07 420.96 C 384.36 414.39 397.34 412.72 393.13 404.84 C 384.10 399.83 376.98 419.68 368.08 410.92 C 379.06 402.13 397.90 393.73 392.36 376.67 C 391.92 369.87 384.99 370.92 379.91 370.85 C 380.19 369.94 380.47 369.02 380.75 368.11 C 384.74 368.99 388.81 368.06 392.85 368.08 C 395.92 370.86 400.28 371.43 403.87 373.38 C 405.22 381.48 395.01 385.84 397.01 394.13 C 399.66 394.02 401.41 391.73 403.83 390.96 C 407.62 400.57 409.85 412.96 404.01 421.95 C 404.65 435.52 387.90 439.49 386.39 451.42 C 384.29 460.52 390.18 469.55 390.91 478.66 C 380.37 479.50 394.86 500.53 381.52 494.52 C 374.73 502.74 384.72 515.21 378.92 525.08 C 376.71 535.26 387.75 539.62 391.41 547.58 C 400.46 550.68 407.98 562.24 418.55 555.53 C 428.08 552.39 441.11 545.85 450.01 553.00 C 461.44 547.16 475.04 547.49 486.43 541.84 C 486.73 541.65 487.33 541.29 487.63 541.11 C 504.35 549.31 519.35 525.31 535.88 532.26 C 532.02 529.51 535.43 522.27 530.35 521.58 C 506.99 520.61 483.74 520.58 460.43 522.54 C 457.74 523.00 454.10 526.27 452.00 523.16 C 450.04 516.80 443.15 523.15 438.58 521.36 C 433.25 518.82 428.26 524.11 423.59 519.42 C 413.96 521.78 403.31 519.96 393.29 519.82 C 391.32 515.26 394.25 510.02 394.29 505.16 C 403.68 509.67 407.42 490.96 399.73 486.94 C 411.12 482.29 408.34 495.99 416.48 498.51 C 427.16 506.85 432.32 487.34 434.26 480.48 C 431.13 472.86 447.12 475.70 440.43 467.61 C 437.91 460.61 435.07 467.71 431.24 467.99 C 428.20 460.94 422.78 455.34 419.67 448.34 C 412.79 446.08 412.78 436.52 417.47 432.56 C 425.58 434.76 424.90 424.56 420.18 421.82 C 424.11 417.69 432.42 411.57 431.92 403.41 C 424.01 401.12 427.33 391.06 426.75 384.95 C 423.37 366.74 428.41 347.02 420.34 329.56 C 417.95 324.18 419.32 337.01 416.19 333.58 C 412.49 331.60 394.35 317.62 399.98 328.91 C 394.93 331.92 388.62 331.00 382.99 330.94 C 381.81 324.38 393.31 330.13 394.03 325.25 C 386.04 324.66 378.11 322.67 370.06 323.64 C 366.21 323.47 363.95 320.01 366.70 316.89 C 362.42 314.59 353.52 311.46 356.91 319.07 C 348.78 317.27 343.87 313.53 335.41 315.70 C 335.09 307.45 330.00 317.54 325.95 318.17 C 326.22 309.40 335.29 305.18 336.52 297.52 C 341.76 294.98 334.87 292.41 332.20 291.52 C 333.81 280.08 349.39 287.62 355.70 279.74 C 374.13 266.62 395.71 259.69 415.86 249.91 C 421.90 245.41 425.31 238.34 429.04 232.00 C 431.36 227.87 437.89 227.99 439.34 223.11 C 435.92 221.39 425.11 227.75 427.55 220.32 C 421.99 217.30 422.47 213.88 430.44 214.38 C 428.74 210.03 431.17 208.27 436.04 206.79 C 435.22 199.42 418.63 208.06 418.29 201.29 C 424.98 197.51 437.82 199.95 442.17 192.08 C 436.70 191.82 431.28 192.69 425.84 193.00 C 427.63 190.90 431.78 190.24 431.98 187.12 C 429.16 186.00 425.49 187.54 423.65 184.46 C 417.75 187.71 406.76 196.26 401.03 189.98 C 412.75 179.27 430.42 176.99 445.22 171.88 C 443.05 175.56 431.59 177.95 438.05 182.14 C 448.29 177.54 456.27 167.71 468.23 167.34 C 467.78 170.33 469.74 172.34 470.94 174.76 C 467.92 177.02 461.53 176.60 460.88 181.05 C 471.11 179.47 480.69 175.16 490.17 171.20 C 493.10 169.86 492.99 172.98 493.41 175.01 C 498.60 174.13 504.19 171.09 506.33 166.05 C 495.44 165.80 485.28 170.03 474.80 172.09 C 492.29 158.82 514.52 150.97 536.67 150.35 C 548.62 153.27 559.88 146.04 571.31 145.62 C 581.91 151.15 591.81 158.63 596.70 170.28 C 625.18 213.83 630.49 266.38 642.24 315.81 C 646.06 339.21 640.74 364.14 649.42 386.50 C 650.97 393.46 653.24 413.42 661.03 401.19 C 663.68 406.93 668.66 413.92 674.14 418.82 C 677.59 424.72 673.50 431.50 672.51 437.60 C 672.07 442.01 664.11 446.51 670.34 449.26 C 667.58 450.80 664.56 451.72 661.61 452.77 C 659.71 468.75 658.16 484.88 659.15 500.98 C 664.31 500.67 669.25 499.12 674.30 498.15 C 670.87 504.95 662.26 506.27 657.08 511.07 C 647.60 531.49 647.37 556.38 629.30 572.26 C 625.20 575.93 617.80 577.78 617.43 584.31 C 614.24 595.07 603.93 601.10 598.47 610.52 C 586.49 627.39 572.13 644.29 551.77 650.84 C 546.87 656.21 556.43 662.16 561.02 657.99 C 573.77 642.67 594.15 634.62 602.94 615.81 C 614.57 601.13 625.70 583.48 640.80 572.89 C 639.94 584.19 641.48 595.48 641.34 606.80 C 635.02 628.43 626.44 650.08 610.87 666.85 C 591.31 691.78 568.94 714.40 544.14 734.13 C 531.27 743.64 518.39 753.49 507.28 765.00 L 456.74 765.00 C 459.20 755.99 458.29 745.85 463.84 737.90 C 468.28 733.96 459.33 729.69 463.25 726.26 C 472.17 720.34 477.06 709.57 474.23 698.91 C 475.29 693.69 465.96 692.78 470.66 687.65 C 475.24 680.55 458.44 686.25 463.68 678.72 C 472.95 676.64 481.60 674.93 491.06 678.00 C 495.88 679.31 493.04 672.05 496.54 670.53 C 504.39 666.81 512.37 660.42 520.91 665.93 C 531.15 659.86 539.88 650.93 550.09 645.10 C 539.16 644.15 529.40 656.34 518.34 659.38 C 494.82 662.99 471.55 679.75 447.29 671.71 C 435.92 664.66 420.07 662.45 413.15 649.84 C 408.74 645.47 403.33 642.21 400.53 636.46 C 384.84 631.36 371.45 621.01 355.26 617.75 C 350.84 614.95 353.07 621.86 349.43 622.17 C 352.53 613.03 338.67 618.49 340.21 611.17 C 342.95 599.45 330.86 589.92 334.85 578.04 C 329.96 559.02 325.86 539.82 323.55 520.43 C 317.54 508.41 314.69 495.36 311.63 482.37 C 299.13 478.98 309.79 462.21 309.70 452.35 C 310.52 447.20 302.00 449.32 304.35 444.37 C 306.61 438.87 310.08 433.99 313.05 428.87 C 295.10 436.29 298.91 459.17 292.10 473.44 C 291.13 459.67 296.55 446.87 300.10 433.91 C 294.53 442.64 294.36 438.54 296.95 431.75 C 293.41 432.34 293.02 436.20 291.58 438.81 C 283.93 439.97 292.78 424.30 287.40 425.28 C 285.86 431.89 283.19 438.37 284.02 445.34 C 286.18 441.56 296.33 441.52 292.96 446.90 C 292.28 449.41 288.55 448.40 287.60 450.68 C 283.95 481.53 292.16 511.88 299.31 541.61 C 302.24 567.87 316.51 590.37 329.26 612.82 C 340.98 628.12 354.66 642.50 362.81 660.18 C 364.27 667.15 356.63 657.06 355.60 655.43 C 352.40 652.32 344.86 653.75 348.11 659.96 C 349.24 668.46 351.62 676.76 352.88 685.26 C 347.10 681.51 342.54 675.28 340.02 668.80 C 339.88 665.52 339.97 662.35 339.99 659.11 C 339.78 658.54 339.35 657.42 339.14 656.86 C 338.48 647.65 337.05 638.99 331.90 651.66 C 312.85 665.28 301.62 687.19 287.28 705.31 C 269.35 716.46 247.74 720.15 230.30 732.28 C 214.98 743.07 200.52 755.08 184.55 765.00 L 0.00 765.00 L 0.00 0.00 M 357.95 110.07 C 356.47 111.24 351.04 113.95 354.21 115.91 C 358.05 116.46 364.61 110.26 357.95 110.07 M 441.40 113.32 C 432.10 119.09 457.50 113.21 441.40 113.32 M 472.42 114.45 C 467.77 116.08 461.14 114.82 457.80 119.01 C 464.19 118.12 471.03 118.63 477.09 116.10 C 480.56 113.96 473.92 112.24 472.42 114.45 M 454.36 115.29 C 443.01 114.76 440.85 125.26 432.23 129.31 C 432.66 141.86 449.54 124.54 455.25 129.75 C 460.55 136.18 460.04 125.60 464.00 123.07 C 459.20 118.63 454.36 127.31 449.70 124.31 C 443.66 120.29 457.37 117.99 454.36 115.29 M 348.97 117.17 C 342.04 119.96 335.18 123.46 330.71 129.67 C 328.91 130.70 320.43 135.69 325.88 135.89 C 334.22 132.08 341.00 125.45 348.99 120.95 C 354.49 121.60 351.54 115.65 348.97 117.17 M 464.41 135.34 C 458.04 139.15 451.09 143.87 445.10 147.04 C 453.06 152.61 462.37 139.13 471.67 138.66 C 476.55 135.18 466.17 133.44 464.41 135.34 M 472.96 142.18 C 471.48 142.91 468.52 144.38 467.04 145.12 C 466.31 151.11 481.24 140.01 472.96 142.18 M 499.42 145.33 C 489.73 150.59 514.47 145.05 499.42 145.33 M 572.27 152.36 C 566.29 151.30 564.35 155.88 561.94 159.76 C 547.52 155.61 533.74 162.88 520.29 167.44 C 499.36 172.87 489.40 194.65 470.15 203.20 C 462.73 208.50 450.62 206.75 445.07 211.90 C 449.62 222.06 454.95 210.12 462.09 210.93 C 458.43 217.99 451.70 223.68 443.37 223.38 C 439.31 225.36 444.44 230.45 448.26 227.27 C 443.10 229.59 437.19 235.68 443.98 238.00 C 430.68 246.08 416.09 256.25 401.02 263.04 C 387.96 268.93 368.25 271.96 368.97 290.05 C 373.20 289.05 374.86 281.32 379.67 281.28 C 383.96 283.29 383.19 287.59 380.97 290.84 C 389.81 290.94 381.45 305.42 376.75 299.25 C 372.19 293.30 364.48 301.22 363.11 305.76 C 373.66 306.59 381.03 321.67 393.48 318.56 C 399.99 314.63 413.46 328.86 416.15 319.10 C 422.23 309.50 423.34 326.81 429.68 329.31 C 430.94 340.45 436.39 352.06 433.21 362.85 C 434.27 379.81 441.09 396.59 437.78 413.72 C 434.12 423.75 425.72 432.01 426.43 443.40 C 424.40 452.27 432.62 459.33 441.00 458.96 C 444.32 464.43 455.29 473.13 446.34 477.02 C 444.35 486.70 453.54 489.85 456.91 497.09 C 454.92 500.84 456.29 505.59 450.14 506.01 C 447.45 501.05 440.35 502.95 438.95 496.93 C 431.84 496.05 435.87 509.79 427.04 510.60 C 437.67 517.74 451.75 515.90 463.61 515.50 C 468.52 511.55 468.26 520.24 473.45 515.49 C 493.45 512.59 518.20 524.94 536.00 511.10 C 539.40 512.39 542.74 514.22 545.71 516.30 C 549.56 519.74 541.59 522.12 545.29 525.69 C 548.00 529.50 543.47 531.43 540.27 531.61 C 540.36 539.46 531.16 535.85 526.62 534.41 C 515.12 537.40 504.52 548.03 492.11 546.89 C 477.07 546.80 462.59 552.91 448.15 556.71 C 439.76 547.61 429.07 559.05 425.17 567.12 C 428.97 575.52 418.19 578.01 416.10 585.06 C 411.01 589.92 403.39 584.44 397.27 586.09 C 395.61 590.74 394.55 596.10 390.08 598.96 C 393.20 602.49 391.01 607.26 391.39 611.47 C 394.86 614.91 399.21 617.53 403.87 618.97 C 406.42 616.79 407.62 612.88 411.25 611.67 C 411.94 605.29 420.68 610.13 422.38 604.17 C 434.92 599.52 416.51 618.52 425.83 611.78 C 425.91 604.53 440.51 603.56 433.31 609.29 C 426.60 611.48 439.90 614.89 433.04 618.07 C 423.22 623.83 430.98 633.41 427.11 641.73 C 431.66 644.31 435.03 648.06 437.24 652.97 C 440.15 652.79 443.54 649.08 446.03 650.89 C 449.12 659.10 460.89 658.33 466.78 653.82 C 471.50 649.92 474.60 658.21 478.88 654.86 C 489.53 650.71 500.04 648.68 510.63 644.43 C 526.85 647.09 537.18 629.28 549.59 620.65 C 549.57 616.24 554.18 612.71 558.37 614.55 C 567.21 617.23 577.30 613.88 581.30 605.27 C 595.95 593.74 601.55 575.04 612.19 560.24 C 619.07 549.13 630.77 537.98 628.43 523.64 C 619.29 500.46 629.15 474.36 626.40 450.39 C 632.91 444.28 627.53 435.63 625.16 429.14 C 629.65 423.08 622.42 416.98 626.11 410.99 C 634.21 416.64 630.57 430.65 634.78 438.09 C 635.79 420.25 633.69 401.59 631.11 383.85 C 629.15 376.86 620.67 363.64 631.68 360.68 C 641.75 316.99 626.05 274.21 616.98 231.97 C 614.07 225.80 606.48 221.35 609.52 213.42 C 602.02 190.10 592.56 166.39 572.27 152.36 M 516.47 155.57 C 507.84 158.54 497.43 159.27 490.73 165.95 C 498.07 167.30 504.40 158.78 511.49 163.55 C 516.75 164.65 528.74 153.49 516.47 155.57 M 469.36 182.40 C 462.23 183.50 454.78 184.77 448.66 188.84 C 456.24 188.84 463.32 185.85 470.33 183.34 C 473.06 182.14 471.53 181.74 469.36 182.40 M 455.35 194.35 C 450.35 195.53 432.53 207.11 447.60 202.60 C 452.79 200.78 469.03 193.74 455.35 194.35 M 366.24 278.29 C 361.50 280.52 357.48 296.89 364.98 285.98 C 366.63 284.81 369.99 278.45 366.24 278.29 M 353.18 300.01 C 351.09 302.23 353.17 307.45 347.39 305.46 C 342.93 307.34 343.12 313.34 348.17 309.26 C 356.32 312.16 363.78 301.27 353.18 300.01 M 350.45 377.37 C 340.88 383.29 364.87 376.15 350.45 377.37 M 659.09 408.76 C 658.60 414.42 663.80 420.15 663.38 425.21 C 657.48 425.88 657.99 457.32 664.22 442.12 C 672.73 431.77 668.15 416.55 659.09 408.76 M 312.27 413.19 C 308.65 417.57 304.25 421.57 301.72 426.70 C 308.06 424.54 304.48 428.04 301.89 431.05 C 306.42 433.74 313.51 421.70 306.70 424.75 C 308.03 420.75 319.59 412.96 312.27 413.19 M 258.03 451.96 C 255.46 466.28 265.60 454.48 258.03 451.96 M 260.32 467.27 C 258.89 469.60 257.62 472.21 257.99 475.03 C 262.76 477.47 264.59 465.43 260.32 467.27 M 261.18 482.23 C 259.26 485.11 261.16 490.45 263.02 493.23 C 261.65 490.92 265.36 482.38 261.18 482.23 M 280.23 481.96 C 278.21 490.93 263.11 494.07 268.87 502.91 C 272.15 496.04 286.05 490.07 280.23 481.96 M 280.28 495.31 C 272.55 497.49 267.64 519.99 279.09 513.06 C 283.89 514.59 281.76 520.44 279.00 523.09 C 279.68 526.18 282.94 528.56 282.05 532.13 C 275.73 527.34 271.86 520.01 267.06 513.93 C 263.81 510.88 267.64 496.26 262.13 500.24 C 261.38 516.79 274.15 528.53 283.22 540.91 C 289.16 539.01 290.55 529.73 287.58 524.37 C 282.36 515.51 282.80 501.46 280.28 495.31 M 288.24 543.14 C 285.20 546.60 291.79 553.37 295.08 554.06 C 293.44 550.37 292.24 543.67 288.24 543.14 M 388.22 572.05 C 385.82 576.73 386.16 582.82 385.00 588.04 C 390.55 587.49 396.91 572.85 388.22 572.05 M 412.36 619.43 C 409.94 620.98 401.99 621.32 407.18 624.82 C 410.89 634.54 419.45 617.39 412.36 619.43 Z" />
<path fill="#bf0505" opacity="1.00" d=" M 648.00 129.82 C 666.60 142.27 674.76 164.05 687.37 181.65 C 690.53 183.25 687.41 175.79 691.72 178.18 C 696.44 193.33 704.73 207.06 714.08 219.77 C 716.41 234.01 726.45 246.24 727.76 260.69 C 723.71 265.17 718.24 268.50 715.25 274.23 C 714.09 262.97 703.24 253.86 707.42 242.19 C 707.30 228.85 695.55 219.07 691.26 206.81 C 685.42 198.92 693.93 216.81 691.17 217.76 C 685.43 207.79 682.69 196.40 676.37 186.67 C 674.58 177.57 685.90 197.05 684.71 187.29 C 676.53 177.85 671.43 166.56 665.11 155.87 C 663.93 150.32 654.67 149.92 657.00 142.94 C 656.48 137.28 649.20 135.49 648.00 129.82 M 701.35 209.28 C 694.43 212.28 705.61 216.55 706.56 220.56 C 716.22 225.09 705.43 207.03 701.35 209.28 M 711.22 248.12 C 707.89 250.54 712.78 253.25 715.02 254.04 C 719.36 252.91 714.03 247.45 711.22 248.12 Z" />
<path fill="#bf0505" opacity="1.00" d=" M 332.19 142.35 C 336.53 145.32 329.05 150.39 325.65 152.79 C 312.75 153.54 328.22 145.35 332.19 142.35 Z" />
<path fill="#bf0505" opacity="1.00" d=" M 415.35 150.38 C 423.26 149.87 403.68 161.04 404.21 154.34 C 408.01 153.27 411.61 151.63 415.35 150.38 Z" />
<path fill="#bf0505" opacity="1.00" d=" M 294.31 151.26 C 305.01 150.08 290.43 163.82 285.97 159.91 C 287.81 156.33 290.58 152.95 294.31 151.26 Z" />
<path fill="#bf0505" opacity="1.00" d=" M 452.17 159.17 C 456.80 158.15 451.15 163.80 452.17 159.17 Z" />
<path fill="#bf0505" opacity="1.00" d=" M 442.34 161.37 C 446.81 159.30 444.84 165.20 442.25 166.28 C 436.42 168.74 430.14 170.76 423.72 170.94 C 428.60 165.87 435.81 163.67 442.34 161.37 Z" />
<path fill="#bf0505" opacity="1.00" d=" M 411.34 162.36 C 420.96 161.47 406.43 169.21 402.24 168.89 C 398.74 164.57 408.47 163.96 411.34 162.36 Z" />
<path fill="#bf0505" opacity="1.00" d=" M 336.39 171.41 C 340.68 172.00 325.54 181.13 324.42 179.42 C 327.13 175.11 331.40 172.23 336.39 171.41 Z" />
<path fill="#bf0505" opacity="1.00" d=" M 276.73 186.73 C 280.06 183.94 279.05 189.04 279.02 191.82 C 282.25 190.66 285.56 189.87 289.05 189.93 C 287.64 195.13 281.67 195.96 277.86 198.83 C 275.92 204.67 264.82 216.27 258.70 214.85 C 262.74 209.32 272.29 207.28 273.09 199.90 C 269.09 199.90 266.53 203.51 263.40 205.44 C 265.87 198.16 271.94 192.61 276.73 186.73 Z" />
<path fill="#bf0505" opacity="1.00" d=" M 669.93 190.88 C 673.61 191.82 674.29 195.86 675.03 199.04 C 670.57 200.23 669.47 193.87 669.93 190.88 Z" />
<path fill="#bf0505" opacity="1.00" d=" M 338.43 196.38 C 341.75 195.54 345.53 195.54 348.35 197.70 C 349.39 202.37 329.25 208.41 338.16 202.21 C 344.14 200.74 331.53 196.88 338.43 196.38 Z" />
<path fill="#bf0505" opacity="1.00" d=" M 351.07 204.26 C 354.12 204.74 347.87 209.62 346.10 210.10 C 335.40 215.00 326.58 225.40 314.83 226.97 C 325.22 217.26 337.96 209.83 351.07 204.26 Z" />
<path fill="#bf0505" opacity="1.00" d=" M 673.42 204.33 C 684.93 199.45 680.85 213.18 685.43 218.62 C 690.23 223.49 690.40 232.81 697.68 235.02 C 699.90 226.11 704.79 242.72 704.09 246.03 C 698.89 244.02 693.86 233.59 688.11 237.24 C 691.70 244.91 700.75 250.98 700.66 260.37 C 703.85 262.80 711.44 272.17 702.30 270.84 C 700.52 266.21 697.43 266.92 697.69 271.98 C 685.40 267.86 687.06 247.90 680.22 240.25 C 676.02 253.33 689.14 265.50 691.10 278.09 C 686.18 277.17 685.25 266.62 679.90 271.96 C 664.52 262.83 672.11 241.96 661.85 229.06 C 654.00 218.54 668.56 224.51 671.30 229.69 C 672.76 231.00 673.62 236.69 675.90 233.74 C 676.96 226.60 674.17 220.03 671.02 214.22 C 677.68 211.22 666.94 206.01 673.42 204.33 Z" />
<path fill="#bf0505" opacity="1.00" d=" M 248.42 208.37 C 253.58 208.83 245.22 220.06 240.98 219.28 C 240.01 224.64 250.11 218.27 247.70 222.70 C 243.62 225.13 240.73 230.69 236.24 231.89 C 232.18 226.50 242.27 221.13 239.21 215.07 C 240.96 212.33 245.91 211.24 248.42 208.37 Z" />
<path fill="#bf0505" opacity="1.00" d=" M 635.98 211.95 C 642.52 211.62 643.33 237.39 638.40 224.64 C 636.68 220.63 635.79 216.32 635.98 211.95 Z" />
<path fill="#bf0505" opacity="1.00" d=" M 650.20 222.14 C 655.40 227.97 656.30 241.50 659.01 250.03 C 652.61 244.47 647.71 231.34 650.20 222.14 Z" />
<path fill="#bf0505" opacity="1.00" d=" M 637.04 233.74 C 643.16 236.08 644.56 257.98 639.72 247.31 C 638.46 242.87 637.21 238.38 637.04 233.74 Z" />
<path fill="#bf0505" opacity="1.00" d=" M 719.22 280.09 C 723.70 279.05 727.93 293.47 721.66 287.31 C 719.65 285.79 716.05 282.33 719.22 280.09 Z" />
<path fill="#bf0505" opacity="1.00" d=" M 538.48 295.55 C 548.87 293.93 558.38 302.91 568.87 301.22 C 570.75 306.81 578.45 315.51 569.11 317.96 C 563.38 309.84 558.89 323.24 551.64 319.38 C 532.60 316.70 512.49 321.92 495.12 331.11 C 498.13 325.47 490.76 325.80 487.14 326.73 C 481.22 324.09 474.47 325.52 468.35 326.57 C 467.28 322.72 464.32 325.03 461.90 326.11 C 468.40 320.13 457.70 305.15 472.06 309.91 C 478.90 313.07 485.86 299.13 490.28 308.87 C 494.32 306.69 500.08 304.05 502.21 299.07 C 509.37 299.54 516.58 299.41 523.73 299.83 C 526.46 293.70 533.65 298.04 538.48 295.55 M 532.87 301.03 C 532.52 303.32 538.39 305.46 535.07 306.91 C 526.88 301.64 532.60 312.54 528.03 310.84 C 524.62 309.10 522.27 312.54 519.18 313.00 C 516.41 310.35 519.05 301.99 513.36 304.30 C 511.05 307.17 507.94 309.26 504.82 306.09 C 498.58 308.20 488.96 309.79 488.91 318.82 C 496.32 321.04 503.97 319.03 511.53 319.47 C 521.85 312.38 537.55 315.81 549.19 313.25 C 550.91 305.51 562.06 313.58 567.12 310.99 C 567.19 304.34 553.39 311.66 556.69 303.89 C 554.10 304.27 549.45 306.75 549.68 302.29 C 543.79 303.75 538.77 299.62 532.87 301.03 M 480.29 312.26 C 478.33 313.91 476.34 315.67 474.97 317.85 C 479.26 321.95 490.58 310.58 480.29 312.26 Z" />
<path fill="#bf0505" opacity="1.00" d=" M 288.40 318.49 C 298.98 320.90 304.25 302.01 312.79 308.19 C 320.92 313.37 305.40 319.38 308.85 322.78 C 320.57 319.96 307.22 331.81 302.40 333.41 C 295.96 339.11 313.00 332.53 311.01 338.02 C 312.66 349.34 305.33 340.61 300.99 339.87 C 301.11 345.24 305.95 353.26 297.28 351.37 C 296.53 360.41 294.72 371.62 299.93 377.82 C 298.14 379.89 295.15 377.93 292.83 378.12 C 294.34 386.14 308.00 377.80 308.98 384.74 C 302.47 386.35 295.72 386.66 289.05 386.95 C 287.04 381.06 288.87 376.06 293.08 372.12 C 283.60 370.57 285.14 362.57 285.80 355.01 C 282.90 354.17 282.40 357.15 281.60 359.20 C 279.48 345.89 278.31 328.78 288.40 318.49 Z" />
<path fill="#bf0505" opacity="1.00" d=" M 336.89 333.00 C 346.08 326.29 358.00 334.19 367.44 334.35 C 356.32 340.24 333.50 330.36 331.06 346.99 C 337.31 352.40 326.32 361.79 338.07 357.04 C 332.62 364.14 326.80 374.70 315.99 373.02 C 313.25 366.49 326.09 366.88 318.01 362.69 C 322.97 359.81 324.93 354.82 317.36 354.51 C 314.14 350.79 323.34 347.90 320.19 343.26 C 328.33 343.29 311.27 332.82 326.12 336.85 C 320.36 329.37 332.98 333.40 336.89 333.00 Z" />
<path fill="#bf0505" opacity="1.00" d=" M 520.28 332.18 C 525.43 331.74 536.28 330.32 529.10 336.03 C 542.92 343.39 561.71 342.73 575.21 352.74 C 581.25 358.18 568.23 350.93 570.23 355.73 C 574.47 358.37 581.32 359.86 583.12 364.99 C 575.29 367.76 571.34 356.72 563.67 359.73 C 561.35 360.50 559.00 358.58 558.97 356.22 C 560.36 356.04 561.76 355.86 563.17 355.68 C 545.14 340.09 515.76 333.06 496.28 350.29 C 493.40 354.32 494.65 359.20 499.43 360.30 C 501.56 364.66 506.89 365.51 511.03 367.14 C 511.75 361.72 504.58 361.83 501.52 359.01 C 501.44 354.39 501.88 344.72 509.72 348.05 C 514.53 351.89 509.86 357.34 512.23 361.66 C 519.73 362.39 527.09 361.10 534.45 360.61 C 532.86 366.63 509.25 362.45 516.97 368.11 C 523.84 373.95 501.97 371.39 511.98 376.06 C 520.26 376.74 516.73 383.90 517.79 389.28 C 514.45 385.84 512.73 379.84 507.33 379.58 C 503.36 377.63 505.48 371.70 501.18 369.90 C 499.82 374.89 499.66 380.11 501.05 385.11 C 494.47 383.47 495.51 372.59 490.79 373.68 C 489.61 392.24 479.63 359.99 492.04 366.94 C 495.46 362.80 471.27 359.28 487.97 358.19 C 494.23 361.59 493.02 346.54 487.45 350.51 C 480.97 355.31 474.25 342.20 478.97 338.97 C 484.90 345.29 490.59 336.56 497.25 336.09 C 497.68 339.83 487.10 342.35 493.59 343.51 C 497.77 345.78 498.99 337.69 502.93 341.57 C 504.16 330.63 517.38 337.84 520.28 332.18 M 507.41 351.45 C 505.87 353.53 503.10 358.44 507.94 356.97 C 507.87 355.57 508.59 350.34 507.41 351.45 Z" />
<path fill="#bf0505" opacity="1.00" d=" M 386.99 338.13 C 390.94 336.03 402.30 337.82 400.39 344.27 C 394.00 345.40 386.06 340.58 379.66 344.27 C 376.44 344.47 370.07 345.83 370.03 341.19 C 374.75 336.68 382.91 342.59 386.99 338.13 Z" />
<path fill="#bf0505" opacity="1.00" d=" M 388.89 347.08 C 396.43 343.30 399.91 356.33 402.92 362.18 C 393.84 360.67 384.78 356.37 376.46 352.62 C 382.74 348.34 388.87 354.71 395.17 355.08 C 394.32 351.65 390.98 349.70 388.89 347.08 Z" />
<path fill="#bf0505" opacity="1.00" d=" M 686.72 377.99 C 687.50 366.57 699.32 376.83 701.89 367.31 C 703.37 381.17 704.35 399.08 695.87 410.89 C 692.04 402.38 701.52 386.18 693.97 377.16 C 690.92 378.70 694.90 388.41 689.10 389.24 C 688.14 385.50 687.37 381.77 686.72 377.99 Z" />
<path fill="#bf0505" opacity="1.00" d=" M 669.69 392.84 C 670.89 390.30 672.37 387.90 674.05 385.64 C 677.06 389.84 674.91 393.49 669.69 392.84 Z" />
<path fill="#bf0505" opacity="1.00" d=" M 290.80 393.06 C 297.79 390.06 305.45 388.62 313.01 388.00 C 314.43 399.88 297.08 399.04 290.30 405.19 C 282.40 404.53 290.03 397.32 290.80 393.06 Z" />
<path fill="#bf0505" opacity="1.00" d=" M 669.98 403.02 C 668.50 400.46 661.16 397.66 665.39 394.70 C 671.08 396.74 675.83 400.04 676.64 406.34 C 689.45 414.86 696.57 442.66 676.90 446.99 C 680.89 442.97 684.97 438.20 683.11 431.96 C 684.61 419.90 669.81 414.66 669.98 403.02 Z" />
<path fill="#bf0505" opacity="1.00" d=" M 501.58 448.61 C 505.31 441.51 487.29 433.68 495.79 430.43 C 513.65 439.57 533.18 446.23 543.44 464.54 C 552.81 474.17 561.00 485.11 566.51 497.39 C 563.19 504.37 577.24 513.59 563.23 513.22 C 566.71 518.84 559.51 519.65 558.43 521.81 C 564.06 523.75 561.72 529.56 557.84 532.04 C 557.44 532.03 556.64 532.00 556.24 531.99 C 549.36 524.78 561.91 518.35 556.17 510.86 C 556.49 504.18 544.28 506.16 547.98 499.19 C 544.94 501.09 536.98 499.04 539.57 504.35 C 541.05 511.58 530.59 502.98 532.88 499.98 C 536.33 499.61 539.13 493.15 533.84 495.76 C 524.56 494.34 531.07 475.99 519.17 475.81 C 520.51 467.25 510.23 464.15 506.63 456.48 C 502.51 455.30 497.77 453.29 501.58 448.61 M 509.92 444.92 C 509.95 447.44 511.56 449.57 511.91 452.03 C 509.54 464.22 526.29 464.47 528.89 475.06 C 532.87 486.20 544.82 489.62 552.37 497.63 C 558.46 500.33 555.16 492.66 552.73 490.31 C 539.64 474.32 527.45 455.84 509.92 444.92 Z" />
<path fill="#bf0505" opacity="1.00" d=" M 697.43 437.74 C 698.91 439.32 698.94 441.28 698.17 443.23 C 692.07 444.14 695.19 440.71 697.43 437.74 Z" />
<path fill="#bf0505" opacity="1.00" d=" M 402.32 446.25 C 409.50 445.77 409.70 457.25 406.18 461.97 C 411.71 469.84 400.20 466.70 397.11 462.70 C 396.84 457.32 395.64 448.51 402.32 446.25 Z" />
<path fill="#bf0505" opacity="1.00" d=" M 453.97 465.00 C 457.16 459.68 464.63 450.86 472.69 452.27 C 479.22 453.98 482.49 460.86 489.02 462.28 C 486.61 466.00 479.94 468.66 476.67 464.91 C 490.15 464.20 471.94 452.61 466.97 456.94 C 458.63 460.56 475.07 458.12 474.50 463.20 C 467.42 458.17 460.86 463.97 453.97 465.00 Z" />
<path fill="#bf0505" opacity="1.00" d=" M 602.16 486.04 C 610.95 491.81 601.26 506.32 604.74 515.17 C 605.44 518.23 601.38 522.22 599.10 518.72 C 599.89 507.83 599.85 496.70 602.16 486.04 Z" />
<path fill="#bf0505" opacity="1.00" d=" M 451.71 533.16 C 451.97 532.60 452.50 531.47 452.77 530.90 C 453.71 535.76 454.33 540.66 452.80 545.52 C 452.65 545.13 452.34 544.35 452.18 543.96 C 451.94 540.38 451.82 536.73 451.71 533.16 Z" />
<path fill="#bf0505" opacity="1.00" d=" M 475.08 539.10 L 475.85 538.99 C 476.27 539.95 476.63 540.93 476.93 541.95 C 476.56 542.00 475.83 542.11 475.46 542.16 C 475.37 541.39 475.18 539.87 475.08 539.10 Z" />
<path fill="#bf0505" opacity="1.00" d=" M 553.27 539.32 C 556.29 542.58 556.01 550.79 555.97 556.04 C 547.80 556.63 545.51 540.86 553.27 539.32 Z" />
</g>
<g id="#084a93ff">
<path fill="#084a93" opacity="1.00" d=" M 599.89 0.00 L 959.00 0.00 L 959.00 765.00 L 649.04 765.00 C 659.32 736.01 663.37 704.94 662.75 674.29 C 656.56 651.66 650.84 628.10 641.34 606.80 C 641.48 595.48 639.94 584.19 640.80 572.89 C 625.70 583.48 614.57 601.13 602.94 615.81 C 594.15 634.62 573.77 642.67 561.02 657.99 C 556.43 662.16 546.87 656.21 551.77 650.84 C 572.13 644.29 586.49 627.39 598.47 610.52 C 603.93 601.10 614.24 595.07 617.43 584.31 C 617.80 577.78 625.20 575.93 629.30 572.26 C 647.37 556.38 647.60 531.49 657.08 511.07 C 662.26 506.27 670.87 504.95 674.30 498.15 C 693.02 487.23 699.54 463.65 698.17 443.23 C 698.94 441.28 698.91 439.32 697.43 437.74 C 697.15 416.25 712.62 397.74 711.87 375.90 C 714.81 369.88 703.52 355.32 701.89 367.31 C 699.32 376.83 687.50 366.57 686.72 377.99 C 679.91 372.76 669.31 376.53 674.05 385.64 C 672.37 387.90 670.89 390.30 669.69 392.84 C 668.20 393.34 666.74 393.91 665.39 394.70 C 661.16 397.66 668.50 400.46 669.98 403.02 C 669.81 414.66 684.61 419.90 683.11 431.96 C 684.97 438.20 680.89 442.97 676.90 446.99 C 674.68 447.65 672.48 448.38 670.34 449.26 C 664.11 446.51 672.07 442.01 672.51 437.60 C 673.50 431.50 677.59 424.72 674.14 418.82 C 668.66 413.92 663.68 406.93 661.03 401.19 C 653.24 413.42 650.97 393.46 649.42 386.50 C 640.74 364.14 646.06 339.21 642.24 315.81 C 630.49 266.38 625.18 213.83 596.70 170.28 C 591.81 158.63 581.91 151.15 571.31 145.62 C 559.88 146.04 548.62 153.27 536.67 150.35 C 514.52 150.97 492.29 158.82 474.80 172.09 C 485.28 170.03 495.44 165.80 506.33 166.05 C 504.19 171.09 498.60 174.13 493.41 175.01 C 492.99 172.98 493.10 169.86 490.17 171.20 C 480.69 175.16 471.11 179.47 460.88 181.05 C 461.53 176.60 467.92 177.02 470.94 174.76 C 469.74 172.34 467.78 170.33 468.23 167.34 C 456.27 167.71 448.29 177.54 438.05 182.14 C 431.59 177.95 443.05 175.56 445.22 171.88 C 430.42 176.99 412.75 179.27 401.03 189.98 C 406.76 196.26 417.75 187.71 423.65 184.46 C 425.49 187.54 429.16 186.00 431.98 187.12 C 431.78 190.24 427.63 190.90 425.84 193.00 C 431.28 192.69 436.70 191.82 442.17 192.08 C 437.82 199.95 424.98 197.51 418.29 201.29 C 418.63 208.06 435.22 199.42 436.04 206.79 C 431.17 208.27 428.74 210.03 430.44 214.38 C 422.47 213.88 421.99 217.30 427.55 220.32 C 425.11 227.75 435.92 221.39 439.34 223.11 C 437.89 227.99 431.36 227.87 429.04 232.00 C 425.31 238.34 421.90 245.41 415.86 249.91 C 395.71 259.69 374.13 266.62 355.70 279.74 C 349.39 287.62 333.81 280.08 332.20 291.52 C 334.87 292.41 341.76 294.98 336.52 297.52 C 335.29 305.18 326.22 309.40 325.95 318.17 C 330.00 317.54 335.09 307.45 335.41 315.70 C 343.87 313.53 348.78 317.27 356.91 319.07 C 353.52 311.46 362.42 314.59 366.70 316.89 C 363.95 320.01 366.21 323.47 370.06 323.64 C 378.11 322.67 386.04 324.66 394.03 325.25 C 393.31 330.13 381.81 324.38 382.99 330.94 C 388.62 331.00 394.93 331.92 399.98 328.91 C 394.35 317.62 412.49 331.60 416.19 333.58 C 419.32 337.01 417.95 324.18 420.34 329.56 C 428.41 347.02 423.37 366.74 426.75 384.95 C 427.33 391.06 424.01 401.12 431.92 403.41 C 432.42 411.57 424.11 417.69 420.18 421.82 C 424.90 424.56 425.58 434.76 417.47 432.56 C 412.78 436.52 412.79 446.08 419.67 448.34 C 422.78 455.34 428.20 460.94 431.24 467.99 C 435.07 467.71 437.91 460.61 440.43 467.61 C 447.12 475.70 431.13 472.86 434.26 480.48 C 432.32 487.34 427.16 506.85 416.48 498.51 C 408.34 495.99 411.12 482.29 399.73 486.94 C 407.42 490.96 403.68 509.67 394.29 505.16 C 394.25 510.02 391.32 515.26 393.29 519.82 C 403.31 519.96 413.96 521.78 423.59 519.42 C 428.26 524.11 433.25 518.82 438.58 521.36 C 443.15 523.15 450.04 516.80 452.00 523.16 C 454.10 526.27 457.74 523.00 460.43 522.54 C 483.74 520.58 506.99 520.61 530.35 521.58 C 535.43 522.27 532.02 529.51 535.88 532.26 C 519.35 525.31 504.35 549.31 487.63 541.11 C 490.03 532.58 498.37 544.63 501.88 536.96 C 502.41 530.71 513.76 532.88 512.36 526.66 C 505.07 525.10 495.77 522.17 489.40 527.70 C 486.05 519.74 474.34 524.23 475.19 532.31 C 471.91 529.78 474.42 522.77 469.03 523.02 C 463.50 524.54 455.49 524.84 452.77 530.90 C 452.50 531.47 451.97 532.60 451.71 533.16 C 452.82 522.12 427.79 523.17 431.67 536.01 C 426.77 535.63 426.07 524.64 419.60 528.68 C 418.37 533.47 421.94 547.39 429.52 543.78 C 437.12 543.13 444.89 547.89 452.18 543.96 C 452.34 544.35 452.65 545.13 452.80 545.52 C 456.03 544.12 467.82 543.76 475.46 542.16 C 475.83 542.11 476.56 542.00 476.93 541.95 C 480.08 541.53 483.24 541.69 486.43 541.84 C 475.04 547.49 461.44 547.16 450.01 553.00 C 441.11 545.85 428.08 552.39 418.55 555.53 C 407.98 562.24 400.46 550.68 391.41 547.58 C 387.75 539.62 376.71 535.26 378.92 525.08 C 384.72 515.21 374.73 502.74 381.52 494.52 C 394.86 500.53 380.37 479.50 390.91 478.66 C 390.18 469.55 384.29 460.52 386.39 451.42 C 387.90 439.49 404.65 435.52 404.01 421.95 C 409.85 412.96 407.62 400.57 403.83 390.96 C 401.41 391.73 399.66 394.02 397.01 394.13 C 395.01 385.84 405.22 381.48 403.87 373.38 C 400.28 371.43 395.92 370.86 392.85 368.08 C 393.24 360.48 377.48 356.72 380.75 368.11 C 380.47 369.02 380.19 369.94 379.91 370.85 C 374.69 373.24 369.06 374.63 363.37 375.24 C 357.93 374.15 353.39 371.17 350.89 366.07 C 349.22 360.60 340.46 368.03 343.84 371.05 C 353.08 377.41 329.52 371.50 334.07 381.54 C 348.92 384.57 323.21 386.38 329.39 392.62 C 325.64 398.28 316.32 398.11 312.71 404.51 C 311.51 404.94 310.34 405.40 309.14 405.82 C 308.74 398.04 299.54 404.68 297.22 408.13 C 291.90 409.17 288.21 413.99 282.69 413.88 C 283.51 409.77 287.23 407.59 290.30 405.19 C 297.08 399.04 314.43 399.88 313.01 388.00 C 305.45 388.62 297.79 390.06 290.80 393.06 C 287.30 392.40 286.10 389.25 289.05 386.95 C 295.72 386.66 302.47 386.35 308.98 384.74 C 308.00 377.80 294.34 386.14 292.83 378.12 C 295.15 377.93 298.14 379.89 299.93 377.82 C 294.72 371.62 296.53 360.41 297.28 351.37 C 305.95 353.26 301.11 345.24 300.99 339.87 C 305.33 340.61 312.66 349.34 311.01 338.02 C 313.00 332.53 295.96 339.11 302.40 333.41 C 307.22 331.81 320.57 319.96 308.85 322.78 C 305.40 319.38 320.92 313.37 312.79 308.19 C 304.25 302.01 298.98 320.90 288.40 318.49 C 278.31 328.78 279.48 345.89 281.60 359.20 C 278.95 380.01 271.84 400.22 276.38 421.04 C 265.94 423.01 263.35 436.55 259.79 443.98 C 249.08 440.15 255.98 420.98 252.29 412.02 C 250.15 397.61 245.58 384.53 238.12 372.38 C 239.41 370.77 241.30 364.59 243.17 368.76 C 247.91 376.19 249.67 362.81 251.11 358.88 C 248.19 360.69 239.96 362.00 244.75 356.78 C 250.55 348.10 234.59 339.60 240.90 329.46 C 231.82 329.22 239.03 316.95 230.97 313.89 C 232.97 309.06 241.97 297.46 231.09 302.99 C 229.89 295.26 239.95 296.22 237.55 288.62 C 244.09 289.66 246.61 282.72 252.16 281.84 C 248.28 285.44 236.25 297.74 248.02 292.00 C 242.45 301.43 250.69 298.07 255.64 292.68 C 260.40 289.58 254.31 285.67 255.60 281.49 C 248.75 278.92 263.54 276.03 262.62 271.16 C 260.47 265.50 270.94 262.89 266.18 257.79 C 269.00 253.60 271.14 248.62 272.14 244.08 C 278.98 244.28 281.28 239.66 278.69 234.44 C 284.44 222.01 266.44 225.97 263.88 233.45 C 259.74 237.47 255.81 241.69 252.75 246.61 C 247.41 251.31 236.33 243.19 245.25 238.17 C 246.08 234.47 254.15 225.61 252.05 234.00 C 248.81 240.19 253.98 236.11 256.95 234.11 C 264.24 230.50 268.13 223.19 274.13 218.11 C 282.56 210.00 297.96 210.77 301.23 197.42 C 287.94 196.74 307.75 187.38 305.30 180.32 C 316.57 173.73 326.99 164.70 340.16 161.11 C 346.62 157.52 332.33 160.52 335.16 155.25 C 343.25 151.23 352.14 149.04 360.14 144.83 C 358.86 142.28 353.58 143.65 354.03 140.25 C 358.56 138.81 362.11 135.77 365.67 132.74 C 388.01 128.61 409.42 117.72 432.53 118.42 C 434.26 118.76 437.33 119.14 436.91 121.59 C 430.60 123.75 422.52 124.86 418.06 129.86 C 426.65 132.54 418.62 135.05 418.07 139.72 C 426.51 144.62 436.88 135.77 446.29 140.15 C 439.05 147.75 427.12 150.38 421.78 159.89 C 435.46 157.42 449.33 154.71 462.68 151.13 C 465.25 165.95 483.58 145.24 489.92 148.93 C 486.62 154.98 478.79 155.86 473.64 159.92 C 488.85 156.44 503.68 150.07 518.08 143.82 C 515.37 138.93 504.18 147.12 504.05 140.20 C 507.14 137.22 514.73 140.32 515.14 134.98 C 497.57 133.23 487.62 151.80 469.64 149.99 C 473.94 145.53 480.08 143.82 485.66 141.64 C 486.78 137.34 489.12 128.76 482.05 129.22 C 467.87 131.62 490.50 115.28 482.00 110.05 C 470.42 107.90 458.62 111.73 446.94 110.98 C 445.82 101.46 457.73 102.56 463.81 100.70 C 464.53 96.89 456.99 99.67 455.39 98.41 C 444.57 101.38 433.89 104.95 422.61 105.69 C 406.56 113.88 390.12 122.99 371.90 125.00 C 371.75 120.58 376.97 119.09 379.19 115.84 C 373.90 117.49 369.95 122.88 363.67 120.96 C 369.51 114.83 378.02 109.89 385.99 106.81 C 380.57 114.47 390.67 112.04 394.24 108.21 C 400.83 99.06 412.44 98.72 421.05 93.34 C 425.79 93.72 432.81 95.29 435.25 90.17 C 419.24 84.96 404.79 95.23 391.70 100.98 C 411.52 79.66 443.41 88.46 468.58 79.50 C 471.23 78.76 468.85 75.15 468.67 73.30 C 458.52 70.49 447.90 74.47 437.55 73.79 C 452.42 64.96 470.79 67.09 487.42 66.45 C 488.64 63.69 483.33 63.08 481.74 61.22 C 505.69 57.87 529.89 60.83 552.16 68.90 C 580.07 88.65 611.99 98.46 643.00 110.89 C 645.85 111.05 654.36 114.48 651.78 108.29 C 646.45 105.60 640.41 96.99 652.12 99.73 C 649.00 94.12 650.38 89.54 657.02 87.37 C 638.75 85.40 660.99 59.03 648.48 50.65 C 636.14 48.08 638.34 32.22 628.00 27.21 C 621.15 34.03 614.88 44.73 607.32 51.26 C 608.09 54.92 606.29 57.47 602.97 57.09 C 603.44 49.58 607.45 42.23 611.03 36.03 C 620.29 34.13 618.35 24.12 626.11 20.08 C 624.27 11.83 616.09 15.88 615.50 22.79 C 611.16 19.40 606.11 16.12 601.59 12.48 C 594.37 10.21 606.51 3.80 599.89 0.00 M 648.00 129.82 C 649.20 135.49 656.48 137.28 657.00 142.94 C 654.67 149.92 663.93 150.32 665.11 155.87 C 671.43 166.56 676.53 177.85 684.71 187.29 C 685.90 197.05 674.58 177.57 676.37 186.67 C 682.69 196.40 685.43 207.79 691.17 217.76 C 693.93 216.81 685.42 198.92 691.26 206.81 C 695.55 219.07 707.30 228.85 707.42 242.19 C 703.24 253.86 714.09 262.97 715.25 274.23 C 718.24 268.50 723.71 265.17 727.76 260.69 C 726.45 246.24 716.41 234.01 714.08 219.77 C 704.73 207.06 696.44 193.33 691.72 178.18 C 687.41 175.79 690.53 183.25 687.37 181.65 C 674.76 164.05 666.60 142.27 648.00 129.82 M 415.35 150.38 C 411.61 151.63 408.01 153.27 404.21 154.34 C 403.68 161.04 423.26 149.87 415.35 150.38 M 452.17 159.17 C 451.15 163.80 456.80 158.15 452.17 159.17 M 442.34 161.37 C 435.81 163.67 428.60 165.87 423.72 170.94 C 430.14 170.76 436.42 168.74 442.25 166.28 C 444.84 165.20 446.81 159.30 442.34 161.37 M 411.34 162.36 C 408.47 163.96 398.74 164.57 402.24 168.89 C 406.43 169.21 420.96 161.47 411.34 162.36 M 336.39 171.41 C 331.40 172.23 327.13 175.11 324.42 179.42 C 325.54 181.13 340.68 172.00 336.39 171.41 M 669.93 190.88 C 669.47 193.87 670.57 200.23 675.03 199.04 C 674.29 195.86 673.61 191.82 669.93 190.88 M 338.43 196.38 C 331.53 196.88 344.14 200.74 338.16 202.21 C 329.25 208.41 349.39 202.37 348.35 197.70 C 345.53 195.54 341.75 195.54 338.43 196.38 M 351.07 204.26 C 337.96 209.83 325.22 217.26 314.83 226.97 C 326.58 225.40 335.40 215.00 346.10 210.10 C 347.87 209.62 354.12 204.74 351.07 204.26 M 673.42 204.33 C 666.94 206.01 677.68 211.22 671.02 214.22 C 674.17 220.03 676.96 226.60 675.90 233.74 C 673.62 236.69 672.76 231.00 671.30 229.69 C 668.56 224.51 654.00 218.54 661.85 229.06 C 672.11 241.96 664.52 262.83 679.90 271.96 C 685.25 266.62 686.18 277.17 691.10 278.09 C 689.14 265.50 676.02 253.33 680.22 240.25 C 687.06 247.90 685.40 267.86 697.69 271.98 C 697.43 266.92 700.52 266.21 702.30 270.84 C 711.44 272.17 703.85 262.80 700.66 260.37 C 700.75 250.98 691.70 244.91 688.11 237.24 C 693.86 233.59 698.89 244.02 704.09 246.03 C 704.79 242.72 699.90 226.11 697.68 235.02 C 690.40 232.81 690.23 223.49 685.43 218.62 C 680.85 213.18 684.93 199.45 673.42 204.33 M 635.98 211.95 C 635.79 216.32 636.68 220.63 638.40 224.64 C 643.33 237.39 642.52 211.62 635.98 211.95 M 650.20 222.14 C 647.71 231.34 652.61 244.47 659.01 250.03 C 656.30 241.50 655.40 227.97 650.20 222.14 M 637.04 233.74 C 637.21 238.38 638.46 242.87 639.72 247.31 C 644.56 257.98 643.16 236.08 637.04 233.74 M 719.22 280.09 C 716.05 282.33 719.65 285.79 721.66 287.31 C 727.93 293.47 723.70 279.05 719.22 280.09 M 336.89 333.00 C 332.98 333.40 320.36 329.37 326.12 336.85 C 311.27 332.82 328.33 343.29 320.19 343.26 C 323.34 347.90 314.14 350.79 317.36 354.51 C 324.93 354.82 322.97 359.81 318.01 362.69 C 326.09 366.88 313.25 366.49 315.99 373.02 C 326.80 374.70 332.62 364.14 338.07 357.04 C 342.95 355.58 345.89 350.29 351.09 349.86 C 347.66 353.56 339.53 358.16 341.11 362.92 C 350.62 353.80 363.90 350.92 376.46 352.62 C 384.78 356.37 393.84 360.67 402.92 362.18 C 399.91 356.33 396.43 343.30 388.89 347.08 C 386.04 345.56 382.71 345.23 379.66 344.27 C 386.06 340.58 394.00 345.40 400.39 344.27 C 402.30 337.82 390.94 336.03 386.99 338.13 C 382.34 333.43 373.66 333.92 367.44 334.35 C 358.00 334.19 346.08 326.29 336.89 333.00 M 369.24 358.13 C 365.56 361.60 372.30 368.86 375.31 364.30 C 378.34 360.50 372.79 356.96 369.24 358.13 M 402.32 446.25 C 395.64 448.51 396.84 457.32 397.11 462.70 C 400.20 466.70 411.71 469.84 406.18 461.97 C 409.70 457.25 409.50 445.77 402.32 446.25 M 407.23 529.12 C 404.19 534.56 408.48 542.06 412.97 545.02 C 419.99 542.25 413.85 527.18 407.23 529.12 Z" />
<path fill="#084a93" opacity="1.00" d=" M 357.95 110.07 C 364.61 110.26 358.05 116.46 354.21 115.91 C 351.04 113.95 356.47 111.24 357.95 110.07 Z" />
<path fill="#084a93" opacity="1.00" d=" M 441.40 113.32 C 457.50 113.21 432.10 119.09 441.40 113.32 Z" />
<path fill="#084a93" opacity="1.00" d=" M 472.42 114.45 C 473.92 112.24 480.56 113.96 477.09 116.10 C 471.03 118.63 464.19 118.12 457.80 119.01 C 461.14 114.82 467.77 116.08 472.42 114.45 Z" />
<path fill="#084a93" opacity="1.00" d=" M 348.97 117.17 C 351.54 115.65 354.49 121.60 348.99 120.95 C 341.00 125.45 334.22 132.08 325.88 135.89 C 320.43 135.69 328.91 130.70 330.71 129.67 C 335.18 123.46 342.04 119.96 348.97 117.17 Z" />
<path fill="#084a93" opacity="1.00" d=" M 464.41 135.34 C 466.17 133.44 476.55 135.18 471.67 138.66 C 462.37 139.13 453.06 152.61 445.10 147.04 C 451.09 143.87 458.04 139.15 464.41 135.34 Z" />
<path fill="#084a93" opacity="1.00" d=" M 472.96 142.18 C 481.24 140.01 466.31 151.11 467.04 145.12 C 468.52 144.38 471.48 142.91 472.96 142.18 Z" />
<path fill="#084a93" opacity="1.00" d=" M 499.42 145.33 C 514.47 145.05 489.73 150.59 499.42 145.33 Z" />
<path fill="#084a93" opacity="1.00" d=" M 516.47 155.57 C 528.74 153.49 516.75 164.65 511.49 163.55 C 504.40 158.78 498.07 167.30 490.73 165.95 C 497.43 159.27 507.84 158.54 516.47 155.57 Z" />
<path fill="#084a93" opacity="1.00" d=" M 455.35 194.35 C 469.03 193.74 452.79 200.78 447.60 202.60 C 432.53 207.11 450.35 195.53 455.35 194.35 Z" />
<path fill="#084a93" opacity="1.00" d=" M 263.40 205.44 C 266.53 203.51 269.09 199.90 273.09 199.90 C 272.29 207.28 262.74 209.32 258.70 214.85 C 251.37 214.86 260.18 207.18 263.40 205.44 Z" />
<path fill="#084a93" opacity="1.00" d=" M 701.35 209.28 C 705.43 207.03 716.22 225.09 706.56 220.56 C 705.61 216.55 694.43 212.28 701.35 209.28 Z" />
<path fill="#084a93" opacity="1.00" d=" M 711.22 248.12 C 714.03 247.45 719.36 252.91 715.02 254.04 C 712.78 253.25 707.89 250.54 711.22 248.12 Z" />
<path fill="#084a93" opacity="1.00" d=" M 532.87 301.03 C 538.77 299.62 543.79 303.75 549.68 302.29 C 549.45 306.75 554.10 304.27 556.69 303.89 C 553.39 311.66 567.19 304.34 567.12 310.99 C 562.06 313.58 550.91 305.51 549.19 313.25 C 537.55 315.81 521.85 312.38 511.53 319.47 C 503.97 319.03 496.32 321.04 488.91 318.82 C 488.96 309.79 498.58 308.20 504.82 306.09 C 507.94 309.26 511.05 307.17 513.36 304.30 C 519.05 301.99 516.41 310.35 519.18 313.00 C 522.27 312.54 524.62 309.10 528.03 310.84 C 532.60 312.54 526.88 301.64 535.07 306.91 C 538.39 305.46 532.52 303.32 532.87 301.03 Z" />
<path fill="#084a93" opacity="1.00" d=" M 480.29 312.26 C 490.58 310.58 479.26 321.95 474.97 317.85 C 476.34 315.67 478.33 313.91 480.29 312.26 Z" />
<path fill="#084a93" opacity="1.00" d=" M 497.25 336.09 C 502.39 330.08 513.43 329.52 520.28 332.18 C 517.38 337.84 504.16 330.63 502.93 341.57 C 498.99 337.69 497.77 345.78 493.59 343.51 C 487.10 342.35 497.68 339.83 497.25 336.09 Z" />
<path fill="#084a93" opacity="1.00" d=" M 496.28 350.29 C 515.76 333.06 545.14 340.09 563.17 355.68 C 561.76 355.86 560.36 356.04 558.97 356.22 C 550.87 358.02 542.89 361.09 534.45 360.61 C 527.09 361.10 519.73 362.39 512.23 361.66 C 509.86 357.34 514.53 351.89 509.72 348.05 C 501.88 344.72 501.44 354.39 501.52 359.01 C 501.00 359.33 499.95 359.98 499.43 360.30 C 494.65 359.20 493.40 354.32 496.28 350.29 M 529.23 347.12 C 527.03 350.68 526.76 357.25 532.38 354.52 C 539.68 355.00 534.56 344.54 529.23 347.12 M 543.33 351.13 C 539.48 353.18 539.97 360.81 546.37 356.42 C 553.67 355.65 550.04 347.93 543.33 351.13 Z" />
<path fill="#084a93" opacity="1.00" d=" M 358.31 346.17 C 362.79 344.92 371.00 346.53 362.58 347.62 C 358.98 348.75 353.51 349.92 358.31 346.17 Z" />
<path fill="#084a93" opacity="1.00" d=" M 266.20 492.06 C 266.73 470.26 254.46 438.41 276.55 424.03 C 276.62 428.48 276.81 432.91 277.24 437.35 C 276.78 449.93 276.68 462.53 277.82 475.08 C 278.74 482.14 273.39 490.82 266.20 492.06 Z" />
<path fill="#084a93" opacity="1.00" d=" M 287.40 425.28 C 292.78 424.30 283.93 439.97 291.58 438.81 C 293.02 436.20 293.41 432.34 296.95 431.75 C 294.36 438.54 294.53 442.64 300.10 433.91 C 296.55 446.87 291.13 459.67 292.10 473.44 C 298.91 459.17 295.10 436.29 313.05 428.87 C 310.08 433.99 306.61 438.87 304.35 444.37 C 302.00 449.32 310.52 447.20 309.70 452.35 C 309.79 462.21 299.13 478.98 311.63 482.37 C 314.69 495.36 317.54 508.41 323.55 520.43 C 325.86 539.82 329.96 559.02 334.85 578.04 C 330.86 589.92 342.95 599.45 340.21 611.17 C 338.67 618.49 352.53 613.03 349.43 622.17 C 353.07 621.86 350.84 614.95 355.26 617.75 C 371.45 621.01 384.84 631.36 400.53 636.46 C 403.33 642.21 408.74 645.47 413.15 649.84 C 420.07 662.45 435.92 664.66 447.29 671.71 C 471.55 679.75 494.82 662.99 518.34 659.38 C 529.40 656.34 539.16 644.15 550.09 645.10 C 539.88 650.93 531.15 659.86 520.91 665.93 C 512.37 660.42 504.39 666.81 496.54 670.53 C 493.04 672.05 495.88 679.31 491.06 678.00 C 481.60 674.93 472.95 676.64 463.68 678.72 C 458.44 686.25 475.24 680.55 470.66 687.65 C 465.96 692.78 475.29 693.69 474.23 698.91 C 477.06 709.57 472.17 720.34 463.25 726.26 C 459.33 729.69 468.28 733.96 463.84 737.90 C 458.29 745.85 459.20 755.99 456.74 765.00 L 407.29 765.00 C 384.26 740.03 360.33 715.12 344.08 684.99 C 341.60 679.96 340.36 674.36 340.02 668.80 C 342.54 675.28 347.10 681.51 352.88 685.26 C 351.62 676.76 349.24 668.46 348.11 659.96 C 344.86 653.75 352.40 652.32 355.60 655.43 C 356.63 657.06 364.27 667.15 362.81 660.18 C 354.66 642.50 340.98 628.12 329.26 612.82 C 316.51 590.37 302.24 567.87 299.31 541.61 C 292.16 511.88 283.95 481.53 287.60 450.68 C 288.55 448.40 292.28 449.41 292.96 446.90 C 296.33 441.52 286.18 441.56 284.02 445.34 C 283.19 438.37 285.86 431.89 287.40 425.28 Z" />
<path fill="#084a93" opacity="1.00" d=" M 509.92 444.92 C 527.45 455.84 539.64 474.32 552.73 490.31 C 555.16 492.66 558.46 500.33 552.37 497.63 C 544.82 489.62 532.87 486.20 528.89 475.06 C 526.29 464.47 509.54 464.22 511.91 452.03 C 511.56 449.57 509.95 447.44 509.92 444.92 Z" />
<path fill="#084a93" opacity="1.00" d=" M 258.03 451.96 C 265.60 454.48 255.46 466.28 258.03 451.96 Z" />
<path fill="#084a93" opacity="1.00" d=" M 466.97 456.94 C 471.94 452.61 490.15 464.20 476.67 464.91 C 475.92 464.45 474.39 464.34 474.50 463.20 C 475.07 458.12 458.63 460.56 466.97 456.94 Z" />
<path fill="#084a93" opacity="1.00" d=" M 260.32 467.27 C 264.59 465.43 262.76 477.47 257.99 475.03 C 257.62 472.21 258.89 469.60 260.32 467.27 Z" />
<path fill="#084a93" opacity="1.00" d=" M 261.18 482.23 C 265.36 482.38 261.65 490.92 263.02 493.23 C 261.16 490.45 259.26 485.11 261.18 482.23 Z" />
<path fill="#084a93" opacity="1.00" d=" M 280.28 495.31 C 282.80 501.46 282.36 515.51 287.58 524.37 C 290.55 529.73 289.16 539.01 283.22 540.91 C 274.15 528.53 261.38 516.79 262.13 500.24 C 267.64 496.26 263.81 510.88 267.06 513.93 C 271.86 520.01 275.73 527.34 282.05 532.13 C 282.94 528.56 279.68 526.18 279.00 523.09 C 281.76 520.44 283.89 514.59 279.09 513.06 C 267.64 519.99 272.55 497.49 280.28 495.31 Z" />
<path fill="#084a93" opacity="1.00" d=" M 556.24 531.99 C 556.64 532.00 557.44 532.03 557.84 532.04 C 557.25 533.61 556.71 533.60 556.24 531.99 Z" />
<path fill="#084a93" opacity="1.00" d=" M 475.08 539.10 C 473.71 536.98 477.10 536.72 475.85 538.99 L 475.08 539.10 Z" />
<path fill="#084a93" opacity="1.00" d=" M 288.24 543.14 C 292.24 543.67 293.44 550.37 295.08 554.06 C 291.79 553.37 285.20 546.60 288.24 543.14 Z" />
<path fill="#084a93" opacity="1.00" d=" M 287.28 705.31 C 301.62 687.19 312.85 665.28 331.90 651.66 C 331.52 665.92 323.88 678.58 320.16 692.07 C 310.15 715.72 314.95 741.67 323.41 765.00 L 184.55 765.00 C 200.52 755.08 214.98 743.07 230.30 732.28 C 247.74 720.15 269.35 716.46 287.28 705.31 Z" />
<path fill="#084a93" opacity="1.00" d=" M 339.14 656.86 C 339.35 657.42 339.78 658.54 339.99 659.11 C 339.78 658.54 339.35 657.42 339.14 656.86 Z" />
</g>
<g id="#ffffff">
<path fill="#ffffff" opacity="1.00" d=" M 446.33 61.66 C 450.04 59.95 458.77 59.47 454.71 65.75 C 441.93 62.24 432.05 74.32 418.86 71.86 C 410.82 77.43 399.86 78.08 392.94 85.09 C 406.44 83.09 419.28 77.99 432.96 77.17 C 436.85 77.30 433.43 80.83 431.58 81.56 C 418.50 83.78 405.83 87.85 392.66 89.66 C 374.03 99.57 352.53 104.52 336.57 119.53 C 325.06 126.36 317.07 137.36 306.56 145.45 C 308.74 154.99 295.09 154.42 294.94 162.03 C 305.88 163.50 304.98 148.35 313.63 145.95 C 314.30 147.34 313.37 150.93 315.88 149.85 C 329.61 137.34 345.28 123.50 363.21 117.92 C 355.36 127.10 340.98 131.40 336.89 143.15 C 340.37 141.67 351.45 132.55 347.71 141.66 C 338.42 147.04 330.36 155.33 319.14 156.28 C 317.62 160.39 328.55 158.62 324.72 161.73 C 318.50 164.96 310.66 166.44 304.93 169.66 C 306.06 180.99 289.37 179.53 292.88 189.99 C 297.61 198.92 280.47 196.31 285.78 203.15 C 279.89 210.16 270.31 214.04 263.86 220.76 C 262.07 225.47 259.95 230.02 256.95 234.11 C 253.98 236.11 248.81 240.19 252.05 234.00 C 254.15 225.61 246.08 234.47 245.25 238.17 C 245.31 235.35 245.37 231.17 241.62 233.63 C 233.77 235.98 238.38 243.90 233.55 248.52 C 230.38 253.31 238.70 246.90 238.96 251.04 C 238.39 255.48 229.76 258.80 234.88 263.30 C 238.04 260.93 240.36 257.41 244.04 255.80 C 243.60 265.10 229.58 266.55 233.59 276.58 C 226.41 277.83 223.80 286.56 227.97 291.94 C 219.99 301.34 233.91 314.54 222.00 321.11 C 220.40 316.64 227.11 308.11 219.76 307.30 C 214.79 307.22 219.61 302.13 219.16 299.25 C 216.89 299.17 212.58 301.39 212.04 298.02 C 213.22 294.57 222.08 295.29 220.05 289.99 C 218.20 284.61 228.34 271.95 217.94 277.01 C 214.91 269.58 238.03 264.03 229.57 253.49 C 223.51 249.21 233.68 242.07 233.94 236.37 C 223.57 235.33 237.33 225.48 230.15 220.76 C 233.21 214.58 240.04 208.37 243.20 201.30 C 251.19 200.88 252.89 192.88 254.92 186.71 C 251.48 187.81 249.17 190.82 245.90 192.22 C 249.17 183.90 258.67 178.88 263.17 171.42 C 262.24 166.52 265.96 163.25 269.06 160.08 C 275.34 155.01 277.43 146.75 283.36 141.21 C 279.86 142.19 276.45 143.55 272.82 143.99 C 279.75 138.44 287.24 133.21 295.78 130.46 C 301.15 120.85 282.32 129.78 288.16 123.17 C 298.05 118.44 308.85 114.47 316.23 106.45 C 333.06 102.59 347.29 92.33 363.22 86.20 C 382.79 72.15 406.53 66.27 429.69 61.08 C 428.82 72.71 440.37 58.45 446.33 61.66 M 332.19 142.35 C 328.22 145.35 312.75 153.54 325.65 152.79 C 329.05 150.39 336.53 145.32 332.19 142.35 M 294.31 151.26 C 290.58 152.95 287.81 156.33 285.97 159.91 C 290.43 163.82 305.01 150.08 294.31 151.26 M 276.73 186.73 C 271.94 192.61 265.87 198.16 263.40 205.44 C 260.18 207.18 251.37 214.86 258.70 214.85 C 264.82 216.27 275.92 204.67 277.86 198.83 C 281.67 195.96 287.64 195.13 289.05 189.93 C 285.56 189.87 282.25 190.66 279.02 191.82 C 279.05 189.04 280.06 183.94 276.73 186.73 M 248.42 208.37 C 245.91 211.24 240.96 212.33 239.21 215.07 C 242.27 221.13 232.18 226.50 236.24 231.89 C 240.73 230.69 243.62 225.13 247.70 222.70 C 250.11 218.27 240.01 224.64 240.98 219.28 C 245.22 220.06 253.58 208.83 248.42 208.37 Z" />
<path fill="#ffffff" opacity="1.00" d=" M 454.36 115.29 C 457.37 117.99 443.66 120.29 449.70 124.31 C 454.36 127.31 459.20 118.63 464.00 123.07 C 460.04 125.60 460.55 136.18 455.25 129.75 C 449.54 124.54 432.66 141.86 432.23 129.31 C 440.85 125.26 443.01 114.76 454.36 115.29 Z" />
<path fill="#ffffff" opacity="1.00" d=" M 572.27 152.36 C 592.56 166.39 602.02 190.10 609.52 213.42 C 606.48 221.35 614.07 225.80 616.98 231.97 C 626.05 274.21 641.75 316.99 631.68 360.68 C 620.67 363.64 629.15 376.86 631.11 383.85 C 633.69 401.59 635.79 420.25 634.78 438.09 C 630.57 430.65 634.21 416.64 626.11 410.99 C 622.42 416.98 629.65 423.08 625.16 429.14 C 627.53 435.63 632.91 444.28 626.40 450.39 C 629.15 474.36 619.29 500.46 628.43 523.64 C 630.77 537.98 619.07 549.13 612.19 560.24 C 601.55 575.04 595.95 593.74 581.30 605.27 C 577.30 613.88 567.21 617.23 558.37 614.55 C 554.18 612.71 549.57 616.24 549.59 620.65 C 537.18 629.28 526.85 647.09 510.63 644.43 C 500.04 648.68 489.53 650.71 478.88 654.86 C 474.60 658.21 471.50 649.92 466.78 653.82 C 460.89 658.33 449.12 659.10 446.03 650.89 C 443.54 649.08 440.15 652.79 437.24 652.97 C 435.03 648.06 431.66 644.31 427.11 641.73 C 430.98 633.41 423.22 623.83 433.04 618.07 C 439.90 614.89 426.60 611.48 433.31 609.29 C 440.51 603.56 425.91 604.53 425.83 611.78 C 416.51 618.52 434.92 599.52 422.38 604.17 C 420.68 610.13 411.94 605.29 411.25 611.67 C 407.62 612.88 406.42 616.79 403.87 618.97 C 399.21 617.53 394.86 614.91 391.39 611.47 C 391.01 607.26 393.20 602.49 390.08 598.96 C 394.55 596.10 395.61 590.74 397.27 586.09 C 403.39 584.44 411.01 589.92 416.10 585.06 C 418.19 578.01 428.97 575.52 425.17 567.12 C 429.07 559.05 439.76 547.61 448.15 556.71 C 462.59 552.91 477.07 546.80 492.11 546.89 C 504.52 548.03 515.12 537.40 526.62 534.41 C 531.16 535.85 540.36 539.46 540.27 531.61 C 543.47 531.43 548.00 529.50 545.29 525.69 C 541.59 522.12 549.56 519.74 545.71 516.30 C 542.74 514.22 539.40 512.39 536.00 511.10 C 518.20 524.94 493.45 512.59 473.45 515.49 C 468.26 520.24 468.52 511.55 463.61 515.50 C 451.75 515.90 437.67 517.74 427.04 510.60 C 435.87 509.79 431.84 496.05 438.95 496.93 C 440.35 502.95 447.45 501.05 450.14 506.01 C 456.29 505.59 454.92 500.84 456.91 497.09 C 453.54 489.85 444.35 486.70 446.34 477.02 C 455.29 473.13 444.32 464.43 441.00 458.96 C 432.62 459.33 424.40 452.27 426.43 443.40 C 425.72 432.01 434.12 423.75 437.78 413.72 C 441.09 396.59 434.27 379.81 433.21 362.85 C 436.39 352.06 430.94 340.45 429.68 329.31 C 423.34 326.81 422.23 309.50 416.15 319.10 C 413.46 328.86 399.99 314.63 393.48 318.56 C 381.03 321.67 373.66 306.59 363.11 305.76 C 364.48 301.22 372.19 293.30 376.75 299.25 C 381.45 305.42 389.81 290.94 380.97 290.84 C 383.19 287.59 383.96 283.29 379.67 281.28 C 374.86 281.32 373.20 289.05 368.97 290.05 C 368.25 271.96 387.96 268.93 401.02 263.04 C 416.09 256.25 430.68 246.08 443.98 238.00 C 437.19 235.68 443.10 229.59 448.26 227.27 C 444.44 230.45 439.31 225.36 443.37 223.38 C 451.70 223.68 458.43 217.99 462.09 210.93 C 454.95 210.12 449.62 222.06 445.07 211.90 C 450.62 206.75 462.73 208.50 470.15 203.20 C 489.40 194.65 499.36 172.87 520.29 167.44 C 533.74 162.88 547.52 155.61 561.94 159.76 C 564.35 155.88 566.29 151.30 572.27 152.36 M 538.48 295.55 C 533.65 298.04 526.46 293.70 523.73 299.83 C 516.58 299.41 509.37 299.54 502.21 299.07 C 500.08 304.05 494.32 306.69 490.28 308.87 C 485.86 299.13 478.90 313.07 472.06 309.91 C 457.70 305.15 468.40 320.13 461.90 326.11 C 464.32 325.03 467.28 322.72 468.35 326.57 C 474.47 325.52 481.22 324.09 487.14 326.73 C 490.76 325.80 498.13 325.47 495.12 331.11 C 512.49 321.92 532.60 316.70 551.64 319.38 C 558.89 323.24 563.38 309.84 569.11 317.96 C 578.45 315.51 570.75 306.81 568.87 301.22 C 558.38 302.91 548.87 293.93 538.48 295.55 M 497.25 336.09 C 490.59 336.56 484.90 345.29 478.97 338.97 C 474.25 342.20 480.97 355.31 487.45 350.51 C 493.02 346.54 494.23 361.59 487.97 358.19 C 471.27 359.28 495.46 362.80 492.04 366.94 C 479.63 359.99 489.61 392.24 490.79 373.68 C 495.51 372.59 494.47 383.47 501.05 385.11 C 499.66 380.11 499.82 374.89 501.18 369.90 C 505.48 371.70 503.36 377.63 507.33 379.58 C 512.73 379.84 514.45 385.84 517.79 389.28 C 516.73 383.90 520.26 376.74 511.98 376.06 C 501.97 371.39 523.84 373.95 516.97 368.11 C 509.25 362.45 532.86 366.63 534.45 360.61 C 542.89 361.09 550.87 358.02 558.97 356.22 C 559.00 358.58 561.35 360.50 563.67 359.73 C 571.34 356.72 575.29 367.76 583.12 364.99 C 581.32 359.86 574.47 358.37 570.23 355.73 C 568.23 350.93 581.25 358.18 575.21 352.74 C 561.71 342.73 542.92 343.39 529.10 336.03 C 536.28 330.32 525.43 331.74 520.28 332.18 C 513.43 329.52 502.39 330.08 497.25 336.09 M 501.58 448.61 C 497.77 453.29 502.51 455.30 506.63 456.48 C 510.23 464.15 520.51 467.25 519.17 475.81 C 531.07 475.99 524.56 494.34 533.84 495.76 C 539.13 493.15 536.33 499.61 532.88 499.98 C 530.59 502.98 541.05 511.58 539.57 504.35 C 536.98 499.04 544.94 501.09 547.98 499.19 C 544.28 506.16 556.49 504.18 556.17 510.86 C 561.91 518.35 549.36 524.78 556.24 531.99 C 556.71 533.60 557.25 533.61 557.84 532.04 C 561.72 529.56 564.06 523.75 558.43 521.81 C 559.51 519.65 566.71 518.84 563.23 513.22 C 577.24 513.59 563.19 504.37 566.51 497.39 C 561.00 485.11 552.81 474.17 543.44 464.54 C 533.18 446.23 513.65 439.57 495.79 430.43 C 487.29 433.68 505.31 441.51 501.58 448.61 M 453.97 465.00 C 460.86 463.97 467.42 458.17 474.50 463.20 C 474.39 464.34 475.92 464.45 476.67 464.91 C 479.94 468.66 486.61 466.00 489.02 462.28 C 482.49 460.86 479.22 453.98 472.69 452.27 C 464.63 450.86 457.16 459.68 453.97 465.00 M 602.16 486.04 C 599.85 496.70 599.89 507.83 599.10 518.72 C 601.38 522.22 605.44 518.23 604.74 515.17 C 601.26 506.32 610.95 491.81 602.16 486.04 M 553.27 539.32 C 545.51 540.86 547.80 556.63 555.97 556.04 C 556.01 550.79 556.29 542.58 553.27 539.32 Z" />
<path fill="#ffffff" opacity="1.00" d=" M 469.36 182.40 C 471.53 181.74 473.06 182.14 470.33 183.34 C 463.32 185.85 456.24 188.84 448.66 188.84 C 454.78 184.77 462.23 183.50 469.36 182.40 Z" />
<path fill="#ffffff" opacity="1.00" d=" M 252.75 246.61 C 255.81 241.69 259.74 237.47 263.88 233.45 C 262.99 243.25 270.30 237.21 276.38 237.05 C 265.75 243.14 256.72 254.52 258.05 267.02 C 251.59 272.05 247.02 282.44 237.96 282.19 C 245.85 271.88 248.68 258.70 252.75 246.61 Z" />
<path fill="#ffffff" opacity="1.00" d=" M 366.24 278.29 C 369.99 278.45 366.63 284.81 364.98 285.98 C 357.48 296.89 361.50 280.52 366.24 278.29 Z" />
<path fill="#ffffff" opacity="1.00" d=" M 353.18 300.01 C 363.78 301.27 356.32 312.16 348.17 309.26 C 343.12 313.34 342.93 307.34 347.39 305.46 C 353.17 307.45 351.09 302.23 353.18 300.01 Z" />
<path fill="#ffffff" opacity="1.00" d=" M 367.44 334.35 C 373.66 333.92 382.34 333.43 386.99 338.13 C 382.91 342.59 374.75 336.68 370.03 341.19 C 370.07 345.83 376.44 344.47 379.66 344.27 C 382.71 345.23 386.04 345.56 388.89 347.08 C 390.98 349.70 394.32 351.65 395.17 355.08 C 388.87 354.71 382.74 348.34 376.46 352.62 C 363.90 350.92 350.62 353.80 341.11 362.92 C 339.53 358.16 347.66 353.56 351.09 349.86 C 345.89 350.29 342.95 355.58 338.07 357.04 C 326.32 361.79 337.31 352.40 331.06 346.99 C 333.50 330.36 356.32 340.24 367.44 334.35 M 358.31 346.17 C 353.51 349.92 358.98 348.75 362.58 347.62 C 371.00 346.53 362.79 344.92 358.31 346.17 Z" />
<path fill="#ffffff" opacity="1.00" d=" M 225.90 349.44 C 232.68 351.33 229.47 339.75 236.04 340.05 C 236.77 346.67 235.59 353.35 237.05 359.91 C 239.64 365.38 230.23 369.02 238.12 372.38 C 245.58 384.53 250.15 397.61 252.29 412.02 C 248.64 411.63 249.36 397.34 244.20 404.99 C 242.26 401.29 240.22 397.65 238.20 394.00 C 243.94 391.10 242.71 381.26 234.53 385.42 C 227.85 385.51 238.98 378.30 233.48 375.62 C 222.29 375.57 231.28 360.03 227.12 355.44 C 223.25 357.11 222.13 349.43 225.90 349.44 Z" />
<path fill="#ffffff" opacity="1.00" d=" M 529.23 347.12 C 534.56 344.54 539.68 355.00 532.38 354.52 C 526.76 357.25 527.03 350.68 529.23 347.12 Z" />
<path fill="#ffffff" opacity="1.00" d=" M 507.41 351.45 C 508.59 350.34 507.87 355.57 507.94 356.97 C 503.10 358.44 505.87 353.53 507.41 351.45 Z" />
<path fill="#ffffff" opacity="1.00" d=" M 543.33 351.13 C 550.04 347.93 553.67 355.65 546.37 356.42 C 539.97 360.81 539.48 353.18 543.33 351.13 Z" />
<path fill="#ffffff" opacity="1.00" d=" M 281.60 359.20 C 282.40 357.15 282.90 354.17 285.80 355.01 C 285.14 362.57 283.60 370.57 293.08 372.12 C 288.87 376.06 287.04 381.06 289.05 386.95 C 286.10 389.25 287.30 392.40 290.80 393.06 C 290.03 397.32 282.40 404.53 290.30 405.19 C 287.23 407.59 283.51 409.77 282.69 413.88 C 288.21 413.99 291.90 409.17 297.22 408.13 C 294.85 413.26 290.68 416.65 285.49 418.49 C 282.34 424.60 281.64 431.88 277.24 437.35 C 276.81 432.91 276.62 428.48 276.55 424.03 C 276.50 423.03 276.44 422.03 276.38 421.04 C 271.84 400.22 278.95 380.01 281.60 359.20 Z" />
<path fill="#ffffff" opacity="1.00" d=" M 369.24 358.13 C 372.79 356.96 378.34 360.50 375.31 364.30 C 372.30 368.86 365.56 361.60 369.24 358.13 Z" />
<path fill="#ffffff" opacity="1.00" d=" M 499.43 360.30 C 499.95 359.98 501.00 359.33 501.52 359.01 C 504.58 361.83 511.75 361.72 511.03 367.14 C 506.89 365.51 501.56 364.66 499.43 360.30 Z" />
<path fill="#ffffff" opacity="1.00" d=" M 380.75 368.11 C 377.48 356.72 393.24 360.48 392.85 368.08 C 388.81 368.06 384.74 368.99 380.75 368.11 Z" />
<path fill="#ffffff" opacity="1.00" d=" M 701.89 367.31 C 703.52 355.32 714.81 369.88 711.87 375.90 C 712.62 397.74 697.15 416.25 697.43 437.74 C 695.19 440.71 692.07 444.14 698.17 443.23 C 699.54 463.65 693.02 487.23 674.30 498.15 C 669.25 499.12 664.31 500.67 659.15 500.98 C 658.16 484.88 659.71 468.75 661.61 452.77 C 664.56 451.72 667.58 450.80 670.34 449.26 C 672.48 448.38 674.68 447.65 676.90 446.99 C 696.57 442.66 689.45 414.86 676.64 406.34 C 675.83 400.04 671.08 396.74 665.39 394.70 C 666.74 393.91 668.20 393.34 669.69 392.84 C 674.91 393.49 677.06 389.84 674.05 385.64 C 669.31 376.53 679.91 372.76 686.72 377.99 C 687.37 381.77 688.14 385.50 689.10 389.24 C 694.90 388.41 690.92 378.70 693.97 377.16 C 701.52 386.18 692.04 402.38 695.87 410.89 C 704.35 399.08 703.37 381.17 701.89 367.31 Z" />
<path fill="#ffffff" opacity="1.00" d=" M 363.37 375.24 C 369.06 374.63 374.69 373.24 379.91 370.85 C 384.99 370.92 391.92 369.87 392.36 376.67 C 397.90 393.73 379.06 402.13 368.08 410.92 C 376.98 419.68 384.10 399.83 393.13 404.84 C 397.34 412.72 384.36 414.39 391.07 420.96 C 392.22 431.91 383.34 445.72 375.48 451.67 C 383.40 468.87 371.42 485.11 368.24 501.86 C 369.83 504.09 371.35 506.29 368.56 508.29 C 373.66 515.29 368.57 524.86 373.03 531.94 C 374.78 538.76 380.59 543.15 383.07 548.83 C 377.38 551.89 376.65 563.08 385.10 559.25 C 384.07 568.46 373.37 573.83 369.07 581.04 C 369.83 588.71 361.96 593.92 356.95 598.71 C 336.11 589.25 350.40 561.02 334.20 546.68 C 333.88 519.66 325.58 493.90 324.21 467.05 C 322.80 460.27 336.14 448.31 324.27 446.76 C 327.69 441.28 334.20 433.23 326.93 428.05 C 320.88 425.85 329.95 413.11 321.83 415.81 C 316.57 419.55 319.25 413.10 320.08 410.05 C 323.89 414.80 330.25 405.09 331.43 411.88 C 334.73 410.67 337.38 407.86 336.31 404.13 C 339.23 403.55 346.19 406.72 344.71 401.37 C 343.75 394.34 334.01 399.34 329.91 401.17 C 337.34 388.28 355.29 387.26 363.37 375.24 Z" />
<path fill="#ffffff" opacity="1.00" d=" M 350.45 377.37 C 364.87 376.15 340.88 383.29 350.45 377.37 Z" />
<path fill="#ffffff" opacity="1.00" d=" M 309.14 405.82 C 310.34 405.40 311.51 404.94 312.71 404.51 C 314.27 413.79 297.35 417.80 294.89 427.34 C 290.20 418.38 300.22 407.89 309.14 405.82 Z" />
<path fill="#ffffff" opacity="1.00" d=" M 659.09 408.76 C 668.15 416.55 672.73 431.77 664.22 442.12 C 657.99 457.32 657.48 425.88 663.38 425.21 C 663.80 420.15 658.60 414.42 659.09 408.76 Z" />
<path fill="#ffffff" opacity="1.00" d=" M 312.27 413.19 C 319.59 412.96 308.03 420.75 306.70 424.75 C 313.51 421.70 306.42 433.74 301.89 431.05 C 304.48 428.04 308.06 424.54 301.72 426.70 C 304.25 421.57 308.65 417.57 312.27 413.19 Z" />
<path fill="#ffffff" opacity="1.00" d=" M 280.23 481.96 C 286.05 490.07 272.15 496.04 268.87 502.91 C 263.11 494.07 278.21 490.93 280.23 481.96 Z" />
<path fill="#ffffff" opacity="1.00" d=" M 452.77 530.90 C 455.49 524.84 463.50 524.54 469.03 523.02 C 474.42 522.77 471.91 529.78 475.19 532.31 C 474.34 524.23 486.05 519.74 489.40 527.70 C 495.77 522.17 505.07 525.10 512.36 526.66 C 513.76 532.88 502.41 530.71 501.88 536.96 C 498.37 544.63 490.03 532.58 487.63 541.11 C 487.33 541.29 486.73 541.65 486.43 541.84 C 483.24 541.69 480.08 541.53 476.93 541.95 C 476.63 540.93 476.27 539.95 475.85 538.99 C 477.10 536.72 473.71 536.98 475.08 539.10 C 475.18 539.87 475.37 541.39 475.46 542.16 C 467.82 543.76 456.03 544.12 452.80 545.52 C 454.33 540.66 453.71 535.76 452.77 530.90 Z" />
<path fill="#ffffff" opacity="1.00" d=" M 431.67 536.01 C 427.79 523.17 452.82 522.12 451.71 533.16 C 451.82 536.73 451.94 540.38 452.18 543.96 C 444.89 547.89 437.12 543.13 429.52 543.78 C 421.94 547.39 418.37 533.47 419.60 528.68 C 426.07 524.64 426.77 535.63 431.67 536.01 Z" />
<path fill="#ffffff" opacity="1.00" d=" M 407.23 529.12 C 413.85 527.18 419.99 542.25 412.97 545.02 C 408.48 542.06 404.19 534.56 407.23 529.12 Z" />
<path fill="#ffffff" opacity="1.00" d=" M 388.22 572.05 C 396.91 572.85 390.55 587.49 385.00 588.04 C 386.16 582.82 385.82 576.73 388.22 572.05 Z" />
<path fill="#ffffff" opacity="1.00" d=" M 641.34 606.80 C 650.84 628.10 656.56 651.66 662.75 674.29 C 663.37 704.94 659.32 736.01 649.04 765.00 L 507.28 765.00 C 518.39 753.49 531.27 743.64 544.14 734.13 C 568.94 714.40 591.31 691.78 610.87 666.85 C 626.44 650.08 635.02 628.43 641.34 606.80 Z" />
<path fill="#ffffff" opacity="1.00" d=" M 412.36 619.43 C 419.45 617.39 410.89 634.54 407.18 624.82 C 401.99 621.32 409.94 620.98 412.36 619.43 Z" />
<path fill="#ffffff" opacity="1.00" d=" M 331.90 651.66 C 337.05 638.99 338.48 647.65 339.14 656.86 C 339.35 657.42 339.78 658.54 339.99 659.11 C 339.97 662.35 339.88 665.52 340.02 668.80 C 340.36 674.36 341.60 679.96 344.08 684.99 C 360.33 715.12 384.26 740.03 407.29 765.00 L 323.41 765.00 C 314.95 741.67 310.15 715.72 320.16 692.07 C 323.88 678.58 331.52 665.92 331.90 651.66 Z" />
</g>
</svg>
